# Blender v2.79 (sub 0) OBJ File: 'palm_V1.blend'
# www.blender.org
mtllib palm_body.mtl
o Cube.004
v -0.826144 3.093919 1.332420
v -0.619521 3.079361 0.521702
v -0.486019 3.275874 0.765595
v -0.012975 3.168911 1.125736
v -0.235625 3.313325 1.015255
v -0.320182 3.198664 0.866932
v -0.357661 3.056842 0.174112
v -0.121743 3.254949 0.368139
v 0.333292 3.157248 0.854983
v 0.163724 3.296878 0.649337
v 0.018949 3.181164 0.528894
v -0.022395 2.948871 -0.003885
v 0.219407 3.121618 0.095076
v 0.531789 3.029695 0.537509
v 0.448513 3.155406 0.318520
v 0.302006 3.054587 0.254719
v 0.609605 2.775203 -0.038043
v 0.929726 3.953794 0.198480
v 0.689556 3.542188 0.299597
v 0.629543 3.652197 0.186575
v 0.722555 3.595334 -0.059674
v 0.642982 3.674405 0.038168
v 0.677261 3.610180 0.107871
v 0.572184 3.297718 0.280160
v 0.483928 3.350472 0.140242
v 0.608698 3.354824 -0.127448
v 0.498739 3.374156 -0.028163
v 0.549297 3.342972 0.057673
v 0.538088 3.070393 0.201615
v 0.437178 3.074490 0.081612
v 0.565935 3.114356 -0.124304
v 0.448381 3.092623 -0.053066
v 0.506359 3.089719 0.020264
v 0.539262 2.774209 -0.013633
v -1.186015 3.549154 -0.416494
v -0.400479 3.428970 -0.678522
v -0.502663 3.603708 -0.404754
v -0.588730 3.410594 0.161120
v -0.580543 3.596610 -0.057890
v -0.519191 3.495851 -0.226355
v 0.020406 3.319745 -0.649840
v 0.012106 3.467785 -0.317327
v -0.188247 3.296758 0.302535
v -0.073927 3.458713 0.076168
v -0.066584 3.373440 -0.127623
v 0.319137 3.121783 -0.484570
v 0.389325 3.237279 -0.202015
v 0.155811 3.103304 0.276839
v 0.322191 3.229977 0.112624
v 0.283622 3.163456 -0.059964
v 0.633421 2.798360 -0.007732
v 2.413836 3.474607 0.284330
v 1.587247 3.371753 0.599743
v 1.690214 3.565512 0.311298
v 1.742586 3.383100 -0.303064
v 1.754529 3.570718 -0.061644
v 1.693126 3.458604 0.116074
v 1.133343 3.277032 0.587148
v 1.132223 3.449664 0.240189
v 1.304256 3.287856 -0.436707
v 1.202673 3.454597 -0.182810
v 1.201234 3.354698 0.030201
v 0.797653 3.088726 0.418879
v 0.714158 3.228138 0.127766
v 0.930584 3.097437 -0.399493
v 0.768726 3.232110 -0.210377
v 0.815357 3.151435 -0.032148
v 0.423002 2.782642 -0.085110
v -1.299107 2.289787 -0.667384
v -0.518150 2.543819 -0.827829
v -0.750788 2.700088 -0.634482
v -0.856893 2.641600 -0.042676
v -0.891059 2.740822 -0.310299
v -0.752480 2.649318 -0.431622
v -0.115936 2.686522 -0.739756
v -0.269480 2.885997 -0.476728
v -0.495002 2.798290 0.151815
v -0.426157 2.932614 -0.108487
v -0.332795 2.815970 -0.271379
v 0.195444 2.727172 -0.500731
v 0.135237 2.929409 -0.269259
v -0.104616 2.818301 0.212306
v 0.011383 2.967526 0.025300
v 0.049840 2.849538 -0.117175
v 0.510873 2.753611 0.074210
v 0.425188 3.094862 -1.964347
v 0.883495 3.080305 -1.264410
v 0.613469 3.276818 -1.330686
v 0.028387 3.169854 -1.225084
v 0.260240 3.314268 -1.314656
v 0.426731 3.199607 -1.276834
v 0.962961 3.057785 -0.836537
v 0.660536 3.255892 -0.793609
v -0.005819 3.158191 -0.786863
v 0.260361 3.297822 -0.773015
v 0.446963 3.182107 -0.798430
v 0.867783 2.949814 -0.469077
v 0.631490 3.122561 -0.357600
v 0.094235 3.030638 -0.426057
v 0.311973 3.156349 -0.339563
v 0.457974 3.055530 -0.404512
v 0.466116 2.776146 0.020059
v 2.053971 2.289787 -0.781852
v 1.644827 2.543819 -0.097572
v 1.659368 2.700088 -0.399718
v 1.294608 2.641600 -0.877675
v 1.515041 2.740822 -0.722116
v 1.510913 2.649318 -0.537979
v 1.308219 2.686522 0.139553
v 1.217955 2.885997 -0.151328
v 0.906758 2.798290 -0.742161
v 1.052219 2.932614 -0.515581
v 1.109284 2.815970 -0.336713
v 0.921643 2.727172 0.207739
v 0.791609 2.929409 0.007003
v 0.598480 2.818302 -0.495128
v 0.658040 2.967526 -0.283280
v 0.737134 2.849538 -0.158692
v 0.284612 2.753611 0.052032
v 1.939553 2.730168 1.486684
v 1.064198 2.885730 1.296206
v 1.359335 3.054064 1.149798
v 1.706640 2.893023 0.616583
v 1.624968 3.057529 0.869244
v 1.446561 2.960158 0.962152
v 0.679846 2.943986 1.025833
v 0.918636 3.129169 0.770499
v 1.403662 2.952009 0.251869
v 1.217658 3.132981 0.450759
v 1.070822 3.025864 0.607769
v 0.457040 2.881268 0.664836
v 0.589077 3.058504 0.406013
v 1.032618 2.888946 0.044283
v 0.826702 3.062153 0.149503
v 0.743369 2.959632 0.306656
v 0.364750 2.735268 -0.027102
v 0.087339 0.000000 -0.416700
v 0.406123 0.000000 0.075175
v 0.017325 0.000000 0.416700
v -0.301458 0.000000 -0.075175
v 0.064873 0.918176 -0.264167
v 0.267194 0.882734 0.048891
v 0.026028 1.025112 0.264167
v -0.190206 0.991408 -0.048891
v 0.145458 1.741278 -0.216269
v 0.310441 1.712377 0.039016
v -0.055823 1.776527 -0.039016
v 0.109222 1.747626 0.216268
v 0.264449 2.335394 -0.203656
v 0.414317 2.236240 0.036741
v 0.081666 2.456325 -0.036741
v 0.231534 2.357171 0.203656
v 0.524659 2.865588 -0.216371
v 0.683884 2.760244 0.039034
v 0.330465 2.994068 -0.039034
v 0.489689 2.888725 0.216370
v 0.563230 2.921399 -0.213878
v 0.722454 2.816056 0.041527
v 0.369035 3.049880 -0.036542
v 0.528259 2.944536 0.218863
vn -0.6882 0.7008 -0.1880
vn 0.3397 0.8691 0.3595
vn 0.1122 0.7071 0.6981
vn 0.2792 -0.9562 0.0883
vn -0.2792 0.9503 0.1375
vn 0.6078 0.7837 0.1278
vn 0.0476 -0.9843 -0.1697
vn 0.1525 -0.9698 0.1903
vn -0.0497 0.9939 -0.0984
vn -0.4114 0.8220 -0.3937
vn -0.0637 -0.9977 -0.0239
vn -0.4650 -0.8312 0.3047
vn -0.0523 -0.9139 0.4025
vn -0.2816 -0.9433 0.1760
vn 0.1406 0.9480 -0.2856
vn -0.1722 0.7376 -0.6529
vn 0.4378 0.7067 -0.5558
vn 0.0675 0.4232 -0.9035
vn 0.8890 0.4510 -0.0792
vn -0.1898 -0.8022 0.5661
vn -0.5021 0.4711 0.7252
vn -0.5313 0.4340 -0.7275
vn -0.2348 0.6538 -0.7193
vn 0.8114 -0.5326 -0.2409
vn -0.7090 0.7040 0.0412
vn -0.5949 0.1391 -0.7917
vn 0.7455 -0.6153 0.2561
vn 0.8955 -0.4040 -0.1865
vn -0.8996 0.4364 -0.0170
vn -0.7378 0.2814 0.6136
vn 0.8484 -0.4635 0.2558
vn 0.9199 0.0542 0.3883
vn 0.9810 -0.1206 -0.1520
vn 0.9310 -0.1835 0.3157
vn -0.9819 0.1799 -0.0595
vn -0.8112 -0.0289 0.5841
vn -0.9510 -0.2860 -0.1176
vn -0.7013 -0.4209 0.5753
vn -0.4704 -0.2395 -0.8493
vn 0.9801 0.1193 -0.1588
vn -0.0569 0.8318 -0.5522
vn 0.0291 0.7838 0.6204
vn -0.4013 0.7055 0.5842
vn -0.1121 -0.9868 0.1165
vn -0.0796 0.9968 0.0025
vn 0.3435 0.6202 0.7052
vn -0.0160 -0.9759 -0.2176
vn -0.2644 -0.9623 0.0633
vn 0.2430 0.9671 0.0749
vn 0.2784 0.8679 -0.4113
vn -0.1975 -0.9518 -0.2347
vn -0.6457 -0.6708 -0.3648
vn -0.5362 -0.8440 0.0156
vn -0.4657 -0.8326 -0.3000
vn 0.4882 0.8636 0.1256
vn 0.6018 0.7104 -0.3649
vn 0.8208 0.5395 0.1877
vn 0.8754 0.3307 -0.3526
vn 0.5978 0.2158 0.7721
vn -0.7226 -0.6912 0.0074
vn 0.1226 0.8030 0.5832
vn -0.0228 0.8111 -0.5844
vn 0.4048 0.7122 -0.5735
vn 0.0601 -0.9847 -0.1637
vn 0.1259 0.9914 0.0355
vn -0.3482 0.6657 -0.6600
vn -0.0190 -0.9844 0.1751
vn 0.2158 -0.9694 -0.1172
vn -0.2010 0.9794 -0.0216
vn -0.2172 0.8603 0.4613
vn 0.1641 -0.9691 0.1839
vn 0.6307 -0.7145 0.3029
vn 0.4948 -0.8655 -0.0785
vn 0.4404 -0.8650 0.2405
vn -0.4529 0.8893 -0.0640
vn -0.5494 0.7195 0.4247
vn -0.8029 0.5834 -0.1227
vn -0.8407 0.3534 0.4103
vn -0.6241 0.2763 -0.7309
vn 0.6883 -0.7217 -0.0733
vn -0.3278 0.5022 -0.8002
vn -0.4951 0.8061 0.3241
vn -0.8127 0.5049 0.2909
vn 0.3580 -0.8277 0.4321
vn -0.5516 0.7640 -0.3347
vn -0.1691 0.8625 0.4769
vn 0.5090 -0.8524 0.1197
vn 0.2294 -0.9023 0.3649
vn -0.2808 0.9298 -0.2377
vn -0.0935 0.7453 -0.6601
vn 0.3477 -0.9337 0.0850
vn -0.1381 -0.9778 -0.1574
vn -0.0470 -0.9632 0.2647
vn 0.0779 -0.9964 -0.0320
vn -0.0348 0.9894 -0.1412
vn 0.2457 0.8016 -0.5450
vn 0.3896 0.9199 0.0448
vn 0.6584 0.6433 -0.3908
vn 0.2270 0.6877 0.6896
vn -0.2768 -0.9409 0.1951
vn 0.6034 0.7008 -0.3805
vn -0.4945 0.8691 0.0077
vn -0.5906 0.7071 -0.3888
vn -0.2537 -0.9562 0.1462
vn 0.0872 0.9503 -0.2988
vn -0.5048 0.7837 0.3619
vn 0.0930 -0.9843 0.1498
vn -0.2433 -0.9698 -0.0161
vn 0.1062 0.9939 0.0298
vn 0.5682 0.8220 -0.0375
vn 0.0606 -0.9977 -0.0308
vn 0.0894 -0.8312 -0.5487
vn -0.2615 -0.9139 -0.3104
vn 0.0604 -0.9433 -0.3265
vn 0.1157 0.9480 0.2966
vn 0.5978 0.7376 0.3140
vn 0.1142 0.7067 0.6982
vn 0.6207 0.4232 0.6600
vn -0.5420 0.4510 0.7091
vn -0.2892 -0.8022 -0.5223
vn 0.8115 0.5022 0.2988
vn 0.0954 0.8061 -0.5840
vn 0.3343 0.5049 -0.7958
vn -0.5605 -0.8277 -0.0278
vn 0.6194 0.7640 -0.1807
vn -0.2374 0.8625 -0.4468
vn -0.4321 -0.8524 0.2945
vn -0.4240 -0.9023 -0.0773
vn 0.3650 0.9298 -0.0465
vn 0.5500 0.7453 0.3769
vn -0.2975 -0.9337 0.1991
vn 0.2094 -0.9778 0.0045
vn -0.1635 -0.9632 -0.2134
vn -0.0291 -0.9964 0.0791
vn 0.1276 0.9894 0.0697
vn 0.2360 0.8016 0.5493
vn -0.2961 0.9199 0.2571
vn -0.1565 0.6433 0.7495
vn -0.6618 0.6877 -0.2983
vn 0.0430 -0.9409 -0.3359
vn -0.0348 0.6899 0.7231
vn 0.5024 0.8042 -0.3175
vn 0.8123 0.5727 -0.1103
vn -0.0975 -0.9419 -0.3214
vn 0.3183 0.8951 0.3124
vn 0.2509 0.7753 -0.5797
vn -0.3490 -0.9336 -0.0813
vn 0.0041 -0.9799 -0.1994
vn 0.0874 0.9917 0.0942
vn -0.2231 0.8595 0.4598
vn -0.2048 -0.9785 0.0236
vn 0.1610 -0.8939 0.4183
vn 0.2292 -0.9734 -0.0009
vn 0.0083 -0.9718 0.2356
vn -0.1108 0.9897 -0.0904
vn -0.5006 0.8352 0.2276
vn -0.4297 0.8161 -0.3865
vn -0.8121 0.5834 -0.0148
vn -0.0224 0.4995 -0.8660
vn 0.4147 -0.9000 0.1346
vn 0.0000 -1.0000 0.0000
vn -0.8236 0.1328 0.5514
vn 0.8364 0.1126 -0.5365
vn 0.6723 0.1144 0.7314
vn -0.8315 0.0838 0.5492
vn -0.6442 0.1009 -0.7582
vn -0.8118 0.1681 0.5592
vn -0.6325 0.1121 -0.7664
vn 0.6577 -0.0256 0.7528
vn 0.8362 -0.0501 -0.5461
vn 0.5392 -0.2809 0.7940
vn -0.6300 0.1358 -0.7646
vn 0.6361 -0.1169 0.7627
vn 0.8147 -0.1573 -0.5581
vn -0.6712 0.4371 0.5987
vn 0.7149 -0.3652 -0.5963
vn -0.7288 0.3397 0.5945
vn -0.5554 0.2536 -0.7920
vn 0.5518 0.8340 -0.0000
vn -0.4820 0.3686 -0.7949
vn 0.4820 -0.3686 0.7949
vn 0.6712 -0.4371 -0.5987
usemtl Material
s off
f 1//1 3//1 2//1
f 5//2 4//2 9//2 10//2
f 4//3 5//3 1//3
f 2//4 6//4 1//4
f 5//5 3//5 1//5
f 10//6 9//6 14//6 15//6
f 1//7 6//7 4//7
f 6//8 2//8 7//8 11//8
f 3//9 5//9 10//9 8//9
f 2//10 3//10 8//10 7//10
f 4//11 6//11 11//11 9//11
f 14//12 16//12 17//12
f 11//13 7//13 12//13 16//13
f 9//14 11//14 16//14 14//14
f 8//15 10//15 15//15 13//15
f 7//16 8//16 13//16 12//16
f 13//17 15//17 17//17
f 12//18 13//18 17//18
f 15//19 14//19 17//19
f 16//20 12//20 17//20
f 18//21 20//21 19//21
f 22//22 21//22 26//22 27//22
f 21//23 22//23 18//23
f 19//24 23//24 18//24
f 22//25 20//25 18//25
f 27//26 26//26 31//26 32//26
f 18//27 23//27 21//27
f 23//28 19//28 24//28 28//28
f 20//29 22//29 27//29 25//29
f 19//30 20//30 25//30 24//30
f 21//31 23//31 28//31 26//31
f 31//32 33//32 34//32
f 28//33 24//33 29//33 33//33
f 26//34 28//34 33//34 31//34
f 25//35 27//35 32//35 30//35
f 24//36 25//36 30//36 29//36
f 30//37 32//37 34//37
f 29//38 30//38 34//38
f 32//39 31//39 34//39
f 33//40 29//40 34//40
f 35//41 37//41 36//41
f 39//42 38//42 43//42 44//42
f 38//43 39//43 35//43
f 36//44 40//44 35//44
f 39//45 37//45 35//45
f 44//46 43//46 48//46 49//46
f 35//47 40//47 38//47
f 40//48 36//48 41//48 45//48
f 37//49 39//49 44//49 42//49
f 36//50 37//50 42//50 41//50
f 38//51 40//51 45//51 43//51
f 48//52 50//52 51//52
f 45//53 41//53 46//53 50//53
f 43//54 45//54 50//54 48//54
f 42//55 44//55 49//55 47//55
f 41//56 42//56 47//56 46//56
f 47//57 49//57 51//57
f 46//58 47//58 51//58
f 49//59 48//59 51//59
f 50//60 46//60 51//60
f 52//61 54//61 53//61
f 56//62 55//62 60//62 61//62
f 55//63 56//63 52//63
f 53//64 57//64 52//64
f 56//65 54//65 52//65
f 61//66 60//66 65//66 66//66
f 52//67 57//67 55//67
f 57//68 53//68 58//68 62//68
f 54//69 56//69 61//69 59//69
f 53//70 54//70 59//70 58//70
f 55//71 57//71 62//71 60//71
f 65//72 67//72 68//72
f 62//73 58//73 63//73 67//73
f 60//74 62//74 67//74 65//74
f 59//75 61//75 66//75 64//75
f 58//76 59//76 64//76 63//76
f 64//77 66//77 68//77
f 63//78 64//78 68//78
f 66//79 65//79 68//79
f 67//80 63//80 68//80
f 69//81 71//81 70//81
f 73//82 72//82 77//82 78//82
f 72//83 73//83 69//83
f 70//84 74//84 69//84
f 73//85 71//85 69//85
f 78//86 77//86 82//86 83//86
f 69//87 74//87 72//87
f 74//88 70//88 75//88 79//88
f 71//89 73//89 78//89 76//89
f 70//90 71//90 76//90 75//90
f 72//91 74//91 79//91 77//91
f 82//92 84//92 85//92
f 79//93 75//93 80//93 84//93
f 77//94 79//94 84//94 82//94
f 76//95 78//95 83//95 81//95
f 75//96 76//96 81//96 80//96
f 81//97 83//97 85//97
f 80//98 81//98 85//98
f 83//99 82//99 85//99
f 84//100 80//100 85//100
f 86//101 88//101 87//101
f 90//102 89//102 94//102 95//102
f 89//103 90//103 86//103
f 87//104 91//104 86//104
f 90//105 88//105 86//105
f 95//106 94//106 99//106 100//106
f 86//107 91//107 89//107
f 91//108 87//108 92//108 96//108
f 88//109 90//109 95//109 93//109
f 87//110 88//110 93//110 92//110
f 89//111 91//111 96//111 94//111
f 99//112 101//112 102//112
f 96//113 92//113 97//113 101//113
f 94//114 96//114 101//114 99//114
f 93//115 95//115 100//115 98//115
f 92//116 93//116 98//116 97//116
f 98//117 100//117 102//117
f 97//118 98//118 102//118
f 100//119 99//119 102//119
f 101//120 97//120 102//120
f 103//121 105//121 104//121
f 107//122 106//122 111//122 112//122
f 106//123 107//123 103//123
f 104//124 108//124 103//124
f 107//125 105//125 103//125
f 112//126 111//126 116//126 117//126
f 103//127 108//127 106//127
f 108//128 104//128 109//128 113//128
f 105//129 107//129 112//129 110//129
f 104//130 105//130 110//130 109//130
f 106//131 108//131 113//131 111//131
f 116//132 118//132 119//132
f 113//133 109//133 114//133 118//133
f 111//134 113//134 118//134 116//134
f 110//135 112//135 117//135 115//135
f 109//136 110//136 115//136 114//136
f 115//137 117//137 119//137
f 114//138 115//138 119//138
f 117//139 116//139 119//139
f 118//140 114//140 119//140
f 120//141 122//141 121//141
f 124//142 123//142 128//142 129//142
f 123//143 124//143 120//143
f 121//144 125//144 120//144
f 124//145 122//145 120//145
f 129//146 128//146 133//146 134//146
f 120//147 125//147 123//147
f 125//148 121//148 126//148 130//148
f 122//149 124//149 129//149 127//149
f 121//150 122//150 127//150 126//150
f 123//151 125//151 130//151 128//151
f 133//152 135//152 136//152
f 130//153 126//153 131//153 135//153
f 128//154 130//154 135//154 133//154
f 127//155 129//155 134//155 132//155
f 126//156 127//156 132//156 131//156
f 132//157 134//157 136//157
f 131//158 132//158 136//158
f 134//159 133//159 136//159
f 135//160 131//160 136//160
f 137//161 138//161 139//161 140//161
f 144//162 143//162 148//162 147//162
f 137//163 141//163 142//163 138//163
f 138//164 142//164 143//164 139//164
f 139//165 143//165 144//165 140//165
f 141//166 137//166 140//166 144//166
f 147//167 148//167 152//167 151//167
f 141//168 144//168 147//168 145//168
f 143//169 142//169 146//169 148//169
f 142//170 141//170 145//170 146//170
f 152//171 150//171 154//171 156//171
f 145//172 147//172 151//172 149//172
f 148//173 146//173 150//173 152//173
f 146//174 145//174 149//174 150//174
f 155//175 156//175 160//175 159//175
f 150//176 149//176 153//176 154//176
f 151//177 152//177 156//177 155//177
f 149//178 151//178 155//178 153//178
f 157//179 159//179 160//179 158//179
f 153//180 155//180 159//180 157//180
f 156//181 154//181 158//181 160//181
f 154//182 153//182 157//182 158//182
