# Blender v2.79 (sub 0) OBJ File: 'Battery2.blend'
# www.blender.org
mtllib Battery2.mtl
o Cube.003
v -0.020000 -0.045351 0.020000
v -0.020000 -0.039846 0.020000
v -0.020000 -0.039846 -0.020000
v -0.020000 -0.045351 -0.020000
v 0.020000 -0.039846 -0.020000
v 0.020000 -0.045351 -0.020000
v 0.020000 -0.039846 0.020000
v 0.020000 -0.045351 0.020000
v -0.014402 -0.045351 0.014402
v 0.014402 -0.045351 0.014402
v -0.014402 -0.045351 -0.014402
v -0.014402 -0.040164 -0.014402
v -0.014402 -0.040164 0.014402
v 0.014402 -0.045351 -0.014402
v 0.014402 -0.040164 -0.014402
v 0.009390 -0.040164 -0.004214
v 0.001976 -0.040164 -0.000149
v 0.003524 -0.040164 -0.010840
v -0.011936 -0.040164 0.004567
v 0.014402 -0.040164 0.014402
v -0.011936 -0.043439 0.004567
v 0.003524 -0.043439 -0.010840
v 0.001976 -0.043439 -0.000149
v 0.009390 -0.043439 -0.004214
v 0.009314 -0.043439 0.008303
v -0.005780 -0.043439 0.009241
v -0.004319 -0.043439 0.001758
v 0.009314 -0.040164 0.008303
v -0.005780 -0.040164 0.009241
v -0.004319 -0.040164 0.001758
vn -1.0000 0.0000 0.0000
vn 0.0000 0.0000 -1.0000
vn 1.0000 -0.0000 0.0000
vn 0.0000 -0.0000 1.0000
vn 0.0000 -1.0000 -0.0000
vn 0.0000 1.0000 0.0000
vn 0.0620 -0.0000 0.9981
vn 0.3460 -0.0000 0.9382
vn 0.9897 0.0000 0.1433
vn 1.0000 0.0000 0.0061
vn -0.9815 0.0000 -0.1916
vn -0.7059 0.0000 -0.7083
vn -0.4808 0.0000 -0.8768
usemtl None.002
s 1
f 1//1 2//1 3//1 4//1
f 4//2 3//2 5//2 6//2
f 6//3 5//3 7//3 8//3
f 8//4 7//4 2//4 1//4
f 8//5 1//5 9//5 10//5
f 5//6 3//6 2//6 7//6
f 9//3 11//3 12//3 13//3
f 4//5 6//5 14//5 11//5
f 1//5 4//5 11//5 9//5
f 6//5 8//5 10//5 14//5
f 12//5 15//5 16//5 17//5 18//5 19//5
f 10//2 9//2 13//2 20//2
f 11//4 14//4 15//4 12//4
f 14//1 10//1 20//1 15//1
f 21//5 22//5 23//5 24//5 25//5 26//5 27//5
f 28//7 29//7 26//7 25//7
f 30//5 29//5 28//5 16//5 15//5 20//5 13//5 12//5 19//5
f 30//8 19//8 21//8 27//8
f 18//9 17//9 23//9 22//9
f 16//10 28//10 25//10 24//10
f 29//11 30//11 27//11 26//11
f 19//12 18//12 22//12 21//12
f 17//13 16//13 24//13 23//13
o Cube
v 0.040000 -0.040000 -0.040000
v 0.040000 -0.040000 0.040000
v -0.040000 -0.040000 0.040000
v -0.040000 -0.040000 -0.040000
v 0.040000 -0.010278 -0.040000
v 0.040000 -0.010278 0.040000
v -0.040000 -0.010278 0.040000
v -0.040000 -0.010278 -0.040000
v 0.026782 -0.010278 -0.026292
v 0.026781 -0.010278 0.026292
v 0.003703 -0.010278 -0.026292
v 0.003703 -0.010278 0.026292
v 0.026782 0.089424 -0.026292
v 0.026781 0.089424 0.026292
v 0.003703 0.089424 -0.026292
v 0.003703 0.089424 0.026292
v 0.029382 0.089424 -0.032217
v 0.029382 0.089424 0.032217
v 0.001103 0.089424 -0.032217
v 0.001103 0.089424 0.032217
v 0.029382 0.093392 -0.032217
v 0.029382 0.093392 0.032217
v 0.001103 0.093392 -0.032217
v 0.001103 0.093392 0.032217
v 0.003703 -0.005034 0.021259
v 0.003703 -0.005034 -0.021259
v 0.003703 0.084181 0.021259
v 0.003703 0.084181 -0.021259
v 0.010254 -0.005034 0.021259
v 0.010254 -0.005034 -0.021259
v 0.010254 0.084181 0.021259
v 0.010254 0.084181 -0.021259
v -0.021104 0.063381 -0.014279
v 0.010819 0.063381 -0.014279
v -0.021104 0.057917 -0.013192
v 0.010819 0.057917 -0.013192
v -0.021104 0.053285 -0.010096
v 0.010819 0.053285 -0.010096
v -0.021104 0.050189 -0.005464
v 0.010819 0.050189 -0.005464
v -0.021104 0.049103 0.000000
v 0.010819 0.049103 0.000000
v -0.021104 0.050189 0.005464
v 0.010819 0.050189 0.005464
v -0.021104 0.053285 0.010096
v 0.010819 0.053285 0.010096
v -0.021104 0.057917 0.013192
v 0.010819 0.057917 0.013192
v -0.021104 0.063381 0.014279
v 0.010819 0.063381 0.014279
v -0.021104 0.068845 0.013192
v 0.010819 0.068845 0.013192
v -0.021104 0.073478 0.010096
v 0.010819 0.073478 0.010096
v -0.021104 0.076573 0.005464
v 0.010819 0.076573 0.005464
v -0.021104 0.077660 0.000000
v 0.010819 0.077660 0.000000
v -0.021104 0.076573 -0.005464
v 0.010819 0.076573 -0.005464
v -0.021104 0.073478 -0.010096
v 0.010819 0.073478 -0.010096
v -0.021104 0.068845 -0.013192
v 0.010819 0.068845 -0.013192
v 0.026782 -0.010278 -0.026292
v 0.026781 -0.010278 0.026292
v 0.026782 0.089424 -0.026292
v 0.026781 0.089424 0.026292
v -0.021104 0.022845 -0.014279
v 0.010819 0.022845 -0.014279
v -0.021104 0.017381 -0.013192
v 0.010819 0.017381 -0.013192
v -0.021104 0.012749 -0.010096
v 0.010819 0.012749 -0.010096
v -0.021104 0.009653 -0.005464
v 0.010819 0.009653 -0.005464
v -0.021104 0.008567 0.000000
v 0.010819 0.008567 0.000000
v -0.021104 0.009653 0.005464
v 0.010819 0.009653 0.005464
v -0.021104 0.012749 0.010096
v 0.010819 0.012749 0.010096
v -0.021104 0.017381 0.013192
v 0.010819 0.017381 0.013192
v -0.021104 0.022845 0.014279
v 0.010819 0.022845 0.014279
v -0.021104 0.028309 0.013192
v 0.010819 0.028309 0.013192
v -0.021104 0.032942 0.010096
v 0.010819 0.032942 0.010096
v -0.021104 0.036037 0.005464
v 0.010819 0.036037 0.005464
v -0.021104 0.037124 0.000000
v 0.010819 0.037124 0.000000
v -0.021104 0.036037 -0.005464
v 0.010819 0.036037 -0.005464
v -0.021104 0.032942 -0.010096
v 0.010819 0.032942 -0.010096
v -0.021104 0.028309 -0.013192
v 0.010819 0.028309 -0.013192
v -0.021104 0.063381 -0.009712
v -0.021104 0.059665 -0.008973
v -0.021104 0.056514 -0.006867
v -0.021104 0.054409 -0.003717
v -0.021104 0.053669 0.000000
v -0.021104 0.054409 0.003717
v -0.021104 0.056514 0.006867
v -0.021104 0.059665 0.008973
v -0.021104 0.063381 0.009712
v -0.021104 0.067098 0.008973
v -0.021104 0.070248 0.006867
v -0.021104 0.072354 0.003717
v -0.021104 0.073093 0.000000
v -0.021104 0.072354 -0.003717
v -0.021104 0.070248 -0.006867
v -0.021104 0.067098 -0.008973
v -0.025484 0.063381 -0.009712
v -0.025484 0.059665 -0.008973
v -0.025484 0.056514 -0.006867
v -0.025484 0.054409 -0.003717
v -0.025484 0.053669 0.000000
v -0.025484 0.054409 0.003717
v -0.025484 0.056514 0.006867
v -0.025484 0.059665 0.008973
v -0.025484 0.063381 0.009712
v -0.025484 0.067098 0.008973
v -0.025484 0.070248 0.006867
v -0.025484 0.072354 0.003717
v -0.025484 0.073093 0.000000
v -0.025484 0.072354 -0.003717
v -0.025484 0.070248 -0.006867
v -0.025484 0.067098 -0.008973
v -0.021104 0.022845 -0.010134
v -0.021104 0.018967 -0.009363
v -0.021104 0.015679 -0.007166
v -0.021104 0.013482 -0.003878
v -0.021104 0.012711 0.000000
v -0.021104 0.013482 0.003878
v -0.021104 0.015679 0.007166
v -0.021104 0.018967 0.009363
v -0.021104 0.022845 0.010134
v -0.021104 0.026723 0.009363
v -0.021104 0.030011 0.007166
v -0.021104 0.032208 0.003878
v -0.021104 0.032979 0.000000
v -0.021104 0.032208 -0.003878
v -0.021104 0.030011 -0.007166
v -0.021104 0.026723 -0.009363
v -0.025150 0.022845 -0.010134
v -0.025150 0.018967 -0.009363
v -0.025150 0.015679 -0.007166
v -0.025150 0.013482 -0.003878
v -0.025150 0.012711 0.000000
v -0.025150 0.013482 0.003878
v -0.025150 0.015679 0.007166
v -0.025150 0.018967 0.009363
v -0.025150 0.022845 0.010134
v -0.025150 0.026723 0.009363
v -0.025150 0.030011 0.007166
v -0.025150 0.032208 0.003878
v -0.025150 0.032979 0.000000
v -0.025150 0.032208 -0.003878
v -0.025150 0.030011 -0.007166
v -0.025150 0.026723 -0.009363
vn 0.0000 -1.0000 0.0000
vn 0.0000 1.0000 0.0000
vn 1.0000 0.0000 0.0000
vn -0.0000 -0.0000 1.0000
vn -1.0000 -0.0000 -0.0000
vn 0.0000 0.0000 -1.0000
vn -0.6657 0.0000 -0.7462
vn 0.6657 0.0000 -0.7462
vn 0.6657 -0.2855 -0.6894
vn -0.6657 -0.2855 -0.6894
vn 0.6657 -0.5276 -0.5276
vn -0.6657 -0.5276 -0.5276
vn 0.6657 -0.6894 -0.2855
vn -0.6657 -0.6894 -0.2855
vn 0.6657 -0.7462 0.0000
vn -0.6657 -0.7462 0.0000
vn 0.6657 -0.6894 0.2855
vn -0.6657 -0.6894 0.2855
vn 0.6657 -0.5276 0.5276
vn -0.6657 -0.5276 0.5276
vn 0.6657 -0.2855 0.6894
vn -0.6657 -0.2855 0.6894
vn 0.6657 0.0000 0.7462
vn -0.6657 0.0000 0.7462
vn 0.6657 0.2855 0.6894
vn -0.6657 0.2855 0.6894
vn 0.6657 0.5276 0.5276
vn -0.6657 0.5276 0.5276
vn 0.6657 0.6894 0.2855
vn -0.6657 0.6894 0.2855
vn 0.6657 0.7462 0.0000
vn -0.6657 0.7462 0.0000
vn 0.6657 0.6894 -0.2855
vn -0.6657 0.6894 -0.2855
vn 0.6657 0.5276 -0.5276
vn -0.6657 0.5276 -0.5276
vn 0.6657 0.2855 -0.6894
vn -0.6657 0.2855 -0.6894
vn -0.7537 -0.6071 0.2515
vn -0.7537 -0.4646 0.4646
vn -0.7537 0.6071 -0.2515
vn -0.7537 0.4646 -0.4646
vn -0.7537 -0.2515 0.6071
vn -0.7537 0.2515 -0.6071
vn -0.7537 0.0000 0.6571
vn -0.7537 0.0000 -0.6571
vn -0.7537 -0.2515 -0.6071
vn -0.7537 0.2515 0.6071
vn -0.7537 -0.4646 -0.4646
vn -0.7537 0.4646 0.4646
vn -0.7537 -0.6071 -0.2515
vn -0.7537 0.6071 0.2515
vn -0.7537 -0.6571 0.0000
vn -0.7537 0.6571 0.0000
usemtl Material
s off
f 31//14 32//14 33//14 34//14
f 38//15 37//15 42//15 41//15
f 31//16 35//16 36//16 32//16
f 32//17 36//17 37//17 33//17
f 33//18 37//18 38//18 34//18
f 35//19 31//19 34//19 38//19
f 41//18 42//18 55//18 56//18
f 35//15 38//15 41//15 39//15
f 37//15 36//15 40//15 42//15
f 36//15 35//15 39//15 40//15
f 46//14 44//14 48//14 50//14
f 39//19 41//19 45//19 43//19
f 42//17 40//17 44//17 46//17
f 40//16 39//16 43//16 44//16
f 48//16 47//16 51//16 52//16
f 44//14 43//14 47//14 48//14
f 45//14 46//14 50//14 49//14
f 43//14 45//14 49//14 47//14
f 51//15 53//15 54//15 52//15
f 49//18 50//18 54//18 53//18
f 47//19 49//19 53//19 51//19
f 50//17 48//17 52//17 54//17
f 55//19 57//19 61//19 59//19
f 42//18 46//18 57//18 55//18
f 45//18 41//18 56//18 58//18
f 46//18 45//18 58//18 57//18
f 60//18 59//18 61//18 62//18
f 56//15 55//15 59//15 60//15
f 58//17 56//17 60//17 62//17
f 57//14 58//14 62//14 61//14
f 66//16 64//16 94//16 92//16 90//16 88//16 86//16 84//16 82//16 80//16 78//16 76//16 74//16 72//16 70//16 68//16
f 83//18 85//18 142//18 141//18
f 96//16 95//16 97//16 98//16
f 102//16 100//16 130//16 128//16 126//16 124//16 122//16 120//16 118//16 116//16 114//16 112//16 110//16 108//16 106//16 104//16
f 109//18 111//18 169//18 168//18
f 93//18 63//18 131//18 146//18
f 69//18 71//18 135//18 134//18
f 79//18 81//18 140//18 139//18
f 89//18 91//18 145//18 144//18
f 65//18 67//18 133//18 132//18
f 75//18 77//18 138//18 137//18
f 85//18 87//18 143//18 142//18
f 71//18 73//18 136//18 135//18
f 81//18 83//18 141//18 140//18
f 91//18 93//18 146//18 145//18
f 67//18 69//18 134//18 133//18
f 77//18 79//18 139//18 138//18
f 63//18 65//18 132//18 131//18
f 87//18 89//18 144//18 143//18
f 73//18 75//18 137//18 136//18
f 147//18 148//18 149//18 150//18 151//18 152//18 153//18 154//18 155//18 156//18 157//18 158//18 159//18 160//18 161//18 162//18
f 119//18 121//18 174//18 173//18
f 129//18 99//18 163//18 178//18
f 105//18 107//18 167//18 166//18
f 115//18 117//18 172//18 171//18
f 125//18 127//18 177//18 176//18
f 101//18 103//18 165//18 164//18
f 111//18 113//18 170//18 169//18
f 121//18 123//18 175//18 174//18
f 107//18 109//18 168//18 167//18
f 117//18 119//18 173//18 172//18
f 127//18 129//18 178//18 177//18
f 103//18 105//18 166//18 165//18
f 113//18 115//18 171//18 170//18
f 99//18 101//18 164//18 163//18
f 123//18 125//18 176//18 175//18
f 179//18 180//18 181//18 182//18 183//18 184//18 185//18 186//18 187//18 188//18 189//18 190//18 191//18 192//18 193//18 194//18
s 1
f 63//20 64//21 66//22 65//23
f 65//23 66//22 68//24 67//25
f 67//25 68//24 70//26 69//27
f 69//27 70//26 72//28 71//29
f 71//29 72//28 74//30 73//31
f 73//31 74//30 76//32 75//33
f 75//33 76//32 78//34 77//35
f 77//35 78//34 80//36 79//37
f 79//37 80//36 82//38 81//39
f 81//39 82//38 84//40 83//41
f 83//41 84//40 86//42 85//43
f 85//43 86//42 88//44 87//45
f 87//45 88//44 90//46 89//47
f 89//47 90//46 92//48 91//49
f 91//49 92//48 94//50 93//51
f 93//51 94//50 64//21 63//20
f 99//20 100//21 102//22 101//23
f 101//23 102//22 104//24 103//25
f 103//25 104//24 106//26 105//27
f 105//27 106//26 108//28 107//29
f 107//29 108//28 110//30 109//31
f 109//31 110//30 112//32 111//33
f 111//33 112//32 114//34 113//35
f 113//35 114//34 116//36 115//37
f 115//37 116//36 118//38 117//39
f 117//39 118//38 120//40 119//41
f 119//41 120//40 122//42 121//43
f 121//43 122//42 124//44 123//45
f 123//45 124//44 126//46 125//47
f 125//47 126//46 128//48 127//49
f 127//49 128//48 130//50 129//51
f 129//51 130//50 100//21 99//20
f 136//52 137//53 153//33 152//31
f 144//54 145//55 161//49 160//47
f 137//53 138//56 154//35 153//33
f 145//55 146//57 162//51 161//49
f 138//56 139//58 155//37 154//35
f 131//59 132//60 148//23 147//20
f 146//57 131//59 147//20 162//51
f 139//58 140//61 156//39 155//37
f 132//60 133//62 149//25 148//23
f 140//61 141//63 157//41 156//39
f 133//62 134//64 150//27 149//25
f 141//63 142//65 158//43 157//41
f 134//64 135//66 151//29 150//27
f 142//65 143//67 159//45 158//43
f 135//66 136//52 152//31 151//29
f 143//67 144//54 160//47 159//45
f 178//57 163//59 179//20 194//51
f 171//58 172//61 188//39 187//37
f 164//60 165//62 181//25 180//23
f 172//61 173//63 189//41 188//39
f 165//62 166//64 182//27 181//25
f 173//63 174//65 190//43 189//41
f 166//64 167//66 183//29 182//27
f 174//65 175//67 191//45 190//43
f 167//66 168//52 184//31 183//29
f 175//67 176//54 192//47 191//45
f 168//52 169//53 185//33 184//31
f 176//54 177//55 193//49 192//47
f 169//53 170//56 186//35 185//33
f 177//55 178//57 194//51 193//49
f 170//56 171//58 187//37 186//35
f 163//59 164//60 180//23 179//20
