# Blender v2.79 (sub 0) OBJ File: 'Battery1.blend'
# www.blender.org
mtllib Battery1.mtl
o Cube.001
v -0.019954 -0.045354 0.020000
v -0.019954 -0.039849 0.020000
v -0.019954 -0.039849 -0.020000
v -0.019954 -0.045354 -0.020000
v 0.020046 -0.039849 -0.020000
v 0.020046 -0.045354 -0.020000
v 0.020046 -0.039849 0.020000
v 0.020046 -0.045354 0.020000
v -0.014356 -0.045354 0.014402
v 0.014448 -0.045354 0.014402
v -0.014356 -0.045354 -0.014402
v -0.014356 -0.040167 -0.014402
v -0.014356 -0.040167 0.014402
v 0.014448 -0.045354 -0.014402
v 0.014448 -0.040167 -0.014402
v 0.009436 -0.040167 -0.004214
v 0.002022 -0.040167 -0.000149
v 0.003570 -0.040167 -0.010840
v -0.011890 -0.040167 0.004567
v 0.014448 -0.040167 0.014402
v -0.011890 -0.043442 0.004567
v 0.003570 -0.043442 -0.010840
v 0.002022 -0.043442 -0.000149
v 0.009436 -0.043442 -0.004214
v 0.009360 -0.043442 0.008303
v -0.005734 -0.043442 0.009241
v -0.004273 -0.043442 0.001758
v 0.009360 -0.040167 0.008303
v -0.005734 -0.040167 0.009241
v -0.004273 -0.040167 0.001758
vn -1.0000 0.0000 0.0000
vn 0.0000 0.0000 -1.0000
vn 1.0000 -0.0000 0.0000
vn 0.0000 -0.0000 1.0000
vn 0.0000 -1.0000 -0.0000
vn 0.0000 1.0000 0.0000
vn 0.0620 -0.0000 0.9981
vn 0.3460 -0.0000 0.9382
vn 0.9897 0.0000 0.1433
vn 1.0000 0.0000 0.0061
vn -0.9815 -0.0000 -0.1916
vn -0.7059 0.0000 -0.7083
vn -0.4808 0.0000 -0.8768
usemtl None
s 1
f 1//1 2//1 3//1 4//1
f 4//2 3//2 5//2 6//2
f 6//3 5//3 7//3 8//3
f 8//4 7//4 2//4 1//4
f 8//5 1//5 9//5 10//5
f 5//6 3//6 2//6 7//6
f 9//3 11//3 12//3 13//3
f 4//5 6//5 14//5 11//5
f 1//5 4//5 11//5 9//5
f 6//5 8//5 10//5 14//5
f 12//5 15//5 16//5 17//5 18//5 19//5
f 10//2 9//2 13//2 20//2
f 11//4 14//4 15//4 12//4
f 14//1 10//1 20//1 15//1
f 21//5 22//5 23//5 24//5 25//5 26//5 27//5
f 28//7 29//7 26//7 25//7
f 30//5 29//5 28//5 16//5 15//5 20//5 13//5 12//5 19//5
f 30//8 19//8 21//8 27//8
f 18//9 17//9 23//9 22//9
f 16//10 28//10 25//10 24//10
f 29//11 30//11 27//11 26//11
f 19//12 18//12 22//12 21//12
f 17//13 16//13 24//13 23//13
o Cube
v -0.029555 -0.031413 0.029509
v 0.029462 -0.031413 0.029509
v 0.029462 -0.031413 -0.029509
v -0.029555 -0.031413 -0.029509
v -0.040046 -0.040841 0.040000
v 0.039954 -0.040841 0.040000
v 0.039954 -0.040841 -0.040000
v -0.040046 -0.040841 -0.040000
v -0.013423 0.103270 -0.032294
v -0.000046 0.103270 -0.034955
v -0.000046 0.084952 -0.038856
v -0.014916 0.084952 -0.035898
v -0.027522 0.084952 -0.027475
v -0.035944 0.084952 -0.014869
v -0.038902 0.084952 -0.000000
v -0.035944 0.084952 0.014869
v -0.027522 0.084952 0.027475
v -0.014916 0.084952 0.035898
v -0.000046 0.084952 0.038856
v 0.014823 0.084952 0.035898
v 0.027429 0.084952 0.027475
v 0.035852 0.084952 0.014869
v 0.038809 0.084952 -0.000000
v 0.035852 0.084952 -0.014869
v 0.027429 0.084952 -0.027475
v 0.014823 0.084952 -0.035898
v -0.024763 0.103270 -0.024717
v -0.032340 0.103270 -0.013377
v -0.035001 0.103270 -0.000000
v -0.032340 0.103270 0.013377
v -0.024763 0.103270 0.024717
v -0.013423 0.103270 0.032294
v -0.000046 0.103270 0.034955
v 0.013330 0.103270 0.032294
v 0.024670 0.103270 0.024717
v 0.032248 0.103270 0.013377
v 0.034908 0.103270 -0.000000
v 0.032248 0.103270 -0.013377
v 0.024670 0.103270 -0.024717
v 0.013330 0.103270 -0.032294
v 0.008872 0.114968 -0.021532
v -0.000046 0.114968 -0.023306
v 0.016433 0.114968 -0.016480
v 0.021485 0.114968 -0.008919
v 0.023259 0.114968 -0.000000
v 0.021485 0.114968 0.008919
v 0.016433 0.114968 0.016480
v 0.008872 0.114968 0.021532
v -0.000046 0.114968 0.023306
v -0.008965 0.114968 0.021532
v -0.016526 0.114968 0.016480
v -0.021578 0.114968 0.008919
v -0.023352 0.114968 -0.000000
v -0.021578 0.114968 -0.008919
v -0.016526 0.114968 -0.016480
v -0.008965 0.114968 -0.021532
v 0.004929 0.119253 -0.012013
v -0.000046 0.119253 -0.013003
v 0.009148 0.119253 -0.009194
v 0.011966 0.119253 -0.004976
v 0.012956 0.119253 -0.000000
v 0.011966 0.119253 0.004976
v 0.009148 0.119253 0.009194
v 0.004929 0.119253 0.012013
v -0.000046 0.119253 0.013003
v -0.005022 0.119253 0.012013
v -0.009241 0.119253 0.009194
v -0.012059 0.119253 0.004976
v -0.013049 0.119253 -0.000000
v -0.012059 0.119253 -0.004976
v -0.009241 0.119253 -0.009194
v -0.005022 0.119253 -0.012013
v -0.013423 -0.009496 -0.032294
v -0.000046 -0.009496 -0.034955
v -0.000046 0.008822 -0.038856
v -0.000046 0.046887 -0.039239
v -0.014916 0.008822 -0.035898
v -0.015062 0.046887 -0.036252
v -0.027522 0.008822 -0.027475
v -0.027792 0.046887 -0.027746
v -0.035944 0.008822 -0.014869
v -0.036298 0.046887 -0.015016
v -0.038902 0.008822 -0.000000
v -0.039285 0.046887 -0.000000
v -0.035944 0.008822 0.014869
v -0.036298 0.046887 0.015016
v -0.027522 0.008822 0.027475
v -0.027792 0.046887 0.027746
v -0.014916 0.008822 0.035898
v -0.015062 0.046887 0.036252
v -0.000046 0.008822 0.038856
v -0.000046 0.046887 0.039239
v 0.014823 0.008822 0.035898
v 0.014970 0.046887 0.036252
v 0.027429 0.008822 0.027475
v 0.027700 0.046887 0.027746
v 0.035852 0.008822 0.014869
v 0.036205 0.046887 0.015016
v 0.038809 0.008822 -0.000000
v 0.039192 0.046887 -0.000000
v 0.035852 0.008822 -0.014869
v 0.036205 0.046887 -0.015016
v 0.027429 0.008822 -0.027475
v 0.027700 0.046887 -0.027746
v 0.014823 0.008822 -0.035898
v 0.014970 0.046887 -0.036252
v -0.024763 -0.009496 -0.024717
v -0.032340 -0.009496 -0.013377
v -0.035001 -0.009496 -0.000000
v -0.032340 -0.009496 0.013377
v -0.024763 -0.009496 0.024717
v -0.013423 -0.009496 0.032294
v -0.000046 -0.009496 0.034955
v 0.013330 -0.009496 0.032294
v 0.024670 -0.009496 0.024717
v 0.032248 -0.009496 0.013377
v 0.034908 -0.009496 -0.000000
v 0.032248 -0.009496 -0.013377
v 0.024670 -0.009496 -0.024717
v 0.013330 -0.009496 -0.032294
v 0.008872 -0.021194 -0.021532
v -0.000046 -0.021194 -0.023306
v 0.016433 -0.021194 -0.016480
v 0.021485 -0.021194 -0.008919
v 0.023259 -0.021194 -0.000000
v 0.021485 -0.021194 0.008919
v 0.016433 -0.021194 0.016480
v 0.008872 -0.021194 0.021532
v -0.000046 -0.021194 0.023306
v -0.008965 -0.021194 0.021532
v -0.016526 -0.021194 0.016480
v -0.021578 -0.021194 0.008919
v -0.023352 -0.021194 -0.000000
v -0.021578 -0.021194 -0.008919
v -0.016526 -0.021194 -0.016480
v -0.008965 -0.021194 -0.021532
v 0.004929 -0.025479 -0.012013
v -0.000046 -0.025479 -0.013003
v 0.009148 -0.025479 -0.009194
v 0.011966 -0.025479 -0.004976
v 0.012956 -0.025479 -0.000000
v 0.011966 -0.025479 0.004976
v 0.009148 -0.025479 0.009194
v 0.004929 -0.025479 0.012013
v -0.000046 -0.025479 0.013003
v -0.005022 -0.025479 0.012013
v -0.009241 -0.025479 0.009194
v -0.012059 -0.025479 0.004976
v -0.013049 -0.025479 -0.000000
v -0.012059 -0.025479 -0.004976
v -0.009241 -0.025479 -0.009194
v -0.005022 -0.025479 -0.012013
v -0.017566 -0.009541 -0.019258
v -0.017566 -0.032141 -0.019258
v -0.017566 -0.009541 -0.024219
v -0.017566 -0.032141 -0.024219
v -0.022527 -0.009541 -0.019258
v -0.022527 -0.032141 -0.019258
v -0.022527 -0.009541 -0.024219
v -0.022527 -0.032141 -0.024219
v 0.022434 -0.009541 -0.019258
v 0.022434 -0.032141 -0.019258
v 0.022434 -0.009541 -0.024219
v 0.022434 -0.032141 -0.024219
v 0.017473 -0.009541 -0.019258
v 0.017473 -0.032141 -0.019258
v 0.017473 -0.009541 -0.024219
v 0.017473 -0.032141 -0.024219
v 0.022434 -0.009541 0.022480
v 0.022434 -0.032141 0.022480
v 0.022434 -0.009541 0.017520
v 0.022434 -0.032141 0.017520
v 0.017473 -0.009541 0.022480
v 0.017473 -0.032141 0.022480
v 0.017473 -0.009541 0.017520
v 0.017473 -0.032141 0.017520
v -0.017566 -0.009541 0.022480
v -0.017566 -0.032141 0.022480
v -0.017566 -0.009541 0.017520
v -0.017566 -0.032141 0.017520
v -0.022527 -0.009541 0.022480
v -0.022527 -0.032141 0.022480
v -0.022527 -0.009541 0.017520
v -0.022527 -0.032141 0.017520
vn -0.0000 -1.0000 0.0000
vn 0.0000 0.7438 0.6684
vn 0.6684 0.7438 -0.0000
vn -0.0000 0.7438 -0.6684
vn -0.6684 0.7438 0.0000
vn 0.0000 1.0000 0.0000
vn 1.0000 -0.0000 0.0000
vn 0.0000 0.0000 -1.0000
vn -1.0000 0.0000 0.0000
vn 0.0000 0.0000 1.0000
vn 0.0000 0.4622 0.8867
vn 0.3393 0.4622 0.8192
vn 0.2194 0.8193 0.5297
vn 0.0000 0.8193 0.5734
vn 0.3804 0.1084 0.9184
vn 0.7029 0.1084 0.7029
vn 0.6270 0.4622 0.6270
vn 0.0000 0.1084 -0.9941
vn 0.0000 0.4078 -0.9131
vn -0.3494 0.4078 -0.8435
vn -0.3804 0.1084 -0.9184
vn -0.8192 0.4622 0.3393
vn -0.6270 0.4622 0.6270
vn -0.4054 0.8193 0.4054
vn -0.5297 0.8193 0.2194
vn -0.7029 0.1084 0.7029
vn -0.3804 0.1084 0.9184
vn -0.3393 0.4622 0.8192
vn -0.6456 0.4078 -0.6456
vn -0.7029 0.1084 -0.7029
vn 0.6270 0.4622 -0.6270
vn 0.3393 0.4622 -0.8192
vn 0.2194 0.8193 -0.5297
vn 0.4054 0.8193 -0.4054
vn -0.9184 0.1084 -0.3804
vn -0.9941 0.1084 0.0000
vn -0.8867 0.4622 0.0000
vn -0.8192 0.4622 -0.3393
vn -0.8435 0.4078 -0.3494
vn -0.3393 0.4622 -0.8192
vn -0.6270 0.4622 -0.6270
vn -0.4054 0.8193 -0.4054
vn -0.2194 0.8193 -0.5297
vn 0.3804 0.1084 -0.9184
vn 0.0000 0.4622 -0.8867
vn -0.9131 0.4078 0.0000
vn -0.5734 0.8193 0.0000
vn 0.9184 0.1084 -0.3804
vn 0.7029 0.1084 -0.7029
vn 0.8192 0.4622 -0.3393
vn -0.8435 0.4078 0.3494
vn -0.9184 0.1084 0.3804
vn -0.2194 0.8193 0.5297
vn 0.9184 0.1084 0.3804
vn 0.8192 0.4622 0.3393
vn -0.6456 0.4078 0.6456
vn 0.0000 0.8193 -0.5734
vn -0.3494 0.4078 0.8435
vn 0.5297 0.8193 0.2194
vn 0.4054 0.8193 0.4054
vn 0.0000 0.1084 0.9941
vn 0.0000 0.4078 0.9131
vn 0.5297 0.8193 -0.2194
vn 0.3494 0.4078 0.8435
vn 0.6456 0.4078 0.6456
vn -0.5297 0.8193 -0.2194
vn 0.8435 0.4078 0.3494
vn 0.9941 0.1084 0.0000
vn 0.8867 0.4622 0.0000
vn 0.9131 0.4078 0.0000
vn 0.8435 0.4078 -0.3494
vn 0.0000 0.9757 -0.2191
vn 0.0838 0.9757 -0.2024
vn 0.6456 0.4078 -0.6456
vn 0.5734 0.8193 0.0000
vn 0.3494 0.4078 -0.8435
vn -0.0838 0.9757 -0.2024
vn -0.1549 0.9757 -0.1549
vn -0.2024 0.9757 -0.0838
vn -0.2191 0.9757 0.0000
vn -0.2024 0.9757 0.0838
vn -0.1549 0.9757 0.1549
vn -0.0838 0.9757 0.2024
vn 0.0000 0.9757 0.2191
vn 0.0838 0.9757 0.2024
vn 0.1549 0.9757 0.1549
vn 0.2024 0.9757 0.0838
vn 0.2191 0.9757 0.0000
vn 0.2024 0.9757 -0.0838
vn 0.1549 0.9757 -0.1549
vn 0.0000 -0.4622 0.8867
vn 0.0000 -0.8193 0.5734
vn 0.2194 -0.8193 0.5297
vn 0.3393 -0.4622 0.8192
vn 0.3804 -0.1084 0.9184
vn 0.6270 -0.4622 0.6270
vn 0.7029 -0.1084 0.7029
vn 0.0000 -0.1084 -0.9941
vn -0.3804 -0.1084 -0.9184
vn -0.8192 -0.4622 0.3393
vn -0.5297 -0.8193 0.2194
vn -0.4054 -0.8193 0.4054
vn -0.6270 -0.4622 0.6270
vn -0.7029 -0.1084 0.7029
vn -0.3393 -0.4622 0.8192
vn -0.3804 -0.1084 0.9184
vn -0.7029 -0.1084 -0.7029
vn 0.6270 -0.4622 -0.6270
vn 0.4054 -0.8193 -0.4054
vn 0.2194 -0.8193 -0.5297
vn 0.3393 -0.4622 -0.8192
vn -0.9184 -0.1084 -0.3804
vn -0.8192 -0.4622 -0.3393
vn -0.8867 -0.4622 0.0000
vn -0.9941 -0.1084 0.0000
vn -0.3393 -0.4622 -0.8192
vn -0.2194 -0.8193 -0.5297
vn -0.4054 -0.8193 -0.4054
vn -0.6270 -0.4622 -0.6270
vn 0.3804 -0.1084 -0.9184
vn 0.0000 -0.4622 -0.8867
vn -0.5734 -0.8193 0.0000
vn 0.9184 -0.1084 -0.3804
vn 0.8192 -0.4622 -0.3393
vn 0.7029 -0.1084 -0.7029
vn -0.9184 -0.1084 0.3804
vn -0.2194 -0.8193 0.5297
vn 0.8192 -0.4622 0.3393
vn 0.9184 -0.1084 0.3804
vn 0.0000 -0.8193 -0.5734
vn 0.4054 -0.8193 0.4054
vn 0.5297 -0.8193 0.2194
vn 0.0000 -0.1084 0.9941
vn 0.5297 -0.8193 -0.2194
vn -0.5297 -0.8193 -0.2194
vn 0.8867 -0.4622 0.0000
vn 0.9941 -0.1084 0.0000
vn 0.0838 -0.9757 -0.2024
vn 0.0000 -0.9757 -0.2191
vn 0.5734 -0.8193 0.0000
vn 0.1549 -0.9757 -0.1549
vn 0.2024 -0.9757 -0.0838
vn 0.2191 -0.9757 0.0000
vn 0.2024 -0.9757 0.0838
vn 0.1549 -0.9757 0.1549
vn 0.0838 -0.9757 0.2024
vn 0.0000 -0.9757 0.2191
vn -0.0838 -0.9757 0.2024
vn -0.1549 -0.9757 0.1549
vn -0.2024 -0.9757 0.0838
vn -0.2191 -0.9757 0.0000
vn -0.2024 -0.9757 -0.0838
vn -0.1549 -0.9757 -0.1549
vn -0.0838 -0.9757 -0.2024
vn 0.5773 0.5773 -0.5773
vn -0.5773 0.5773 -0.5773
vn -0.5773 0.5773 0.5773
vn 0.5773 0.5773 0.5773
usemtl Material
s off
f 35//14 38//14 37//14 36//14
f 31//15 35//15 36//15 32//15
f 32//16 36//16 37//16 33//16
f 33//17 37//17 38//17 34//17
f 35//18 31//18 34//18 38//18
f 34//19 31//19 32//19 33//19
f 183//20 184//20 186//20 185//20
f 185//21 186//21 190//21 189//21
f 189//22 190//22 188//22 187//22
f 187//23 188//23 184//23 183//23
f 190//14 186//14 184//14 188//14
f 191//20 192//20 194//20 193//20
f 193//21 194//21 198//21 197//21
f 197//22 198//22 196//22 195//22
f 195//23 196//23 192//23 191//23
f 198//14 194//14 192//14 196//14
f 199//20 200//20 202//20 201//20
f 201//21 202//21 206//21 205//21
f 205//22 206//22 204//22 203//22
f 203//23 204//23 200//23 199//23
f 206//14 202//14 200//14 204//14
f 207//20 208//20 210//20 209//20
f 209//21 210//21 214//21 213//21
f 213//22 214//22 212//22 211//22
f 211//23 212//23 208//23 207//23
f 214//14 210//14 208//14 212//14
s 1
f 63//24 64//25 78//26 79//27
f 50//28 51//29 65//30 64//25
f 41//31 106//32 108//33 42//34
f 60//35 61//36 81//37 82//38
f 47//39 48//40 62//41 61//36
f 42//34 108//33 110//42 43//43
f 69//44 70//45 71//46 73//47
f 44//48 45//49 59//50 58//51
f 43//43 110//42 112//52 44//48
f 39//53 57//54 85//55 86//56
f 56//57 41//31 40//58 70//45
f 44//48 112//52 114//59 45//49
f 59//50 60//35 82//38 83//60
f 54//61 55//62 69//44 68//63
f 45//49 114//59 116//64 46//65
f 62//41 63//24 79//27 80//66
f 51//29 52//67 66//68 65//30
f 46//65 116//64 118//69 47//39
f 70//45 40//58 72//70 71//46
f 41//31 42//34 39//53 40//58
f 47//39 118//69 120//71 48//40
f 65//30 66//68 76//72 77//73
f 48//40 49//74 63//24 62//41
f 48//40 120//71 122//75 49//74
f 68//63 69//44 73//47 74//76
f 45//49 46//65 60//35 59//50
f 49//74 122//75 124//77 50//28
f 40//58 39//53 86//56 72//70
f 42//34 43//43 57//54 39//53
f 50//28 124//77 126//78 51//29
f 58//51 59//50 83//60 84//79
f 55//62 56//57 70//45 69//44
f 51//29 126//78 128//80 52//67
f 61//36 62//41 80//66 81//37
f 52//67 53//81 67//82 66//68
f 52//67 128//80 130//83 53//81
f 64//25 65//30 77//73 78//26
f 49//74 50//28 64//25 63//24
f 53//81 130//83 132//84 54//61
f 71//46 72//70 88//85 87//86
f 46//65 47//39 61//36 60//35
f 54//61 132//84 134//87 55//62
f 67//82 68//63 74//76 75//88
f 55//62 134//87 136//89 56//57
f 66//68 67//82 75//88 76//72
f 53//81 54//61 68//63 67//82
f 56//57 136//89 106//32 41//31
f 43//43 44//48 58//51 57//54
f 57//54 58//51 84//79 85//55
f 88//85 102//90 101//91 100//92 99//93 98//94 97//95 96//96 95//97 94//98 93//99 92//100 91//101 90//102 89//103 87//86
f 72//70 86//56 102//90 88//85
f 80//66 79//27 95//97 96//96
f 73//47 71//46 87//86 89//103
f 81//37 80//66 96//96 97//95
f 74//76 73//47 89//103 90//102
f 82//38 81//37 97//95 98//94
f 75//88 74//76 90//102 91//101
f 83//60 82//38 98//94 99//93
f 76//72 75//88 91//101 92//100
f 84//79 83//60 99//93 100//92
f 77//73 76//72 92//100 93//99
f 85//55 84//79 100//92 101//91
f 78//26 77//73 93//99 94//98
f 86//56 85//55 101//91 102//90
f 79//27 78//26 94//98 95//97
f 143//104 159//105 158//106 144//107
f 123//108 144//107 145//109 125//110
f 105//111 107//112 108//33 106//32
f 140//113 162//114 161//115 141//116
f 117//117 141//116 142//118 119//119
f 107//112 109//120 110//42 108//33
f 149//121 153//122 151//123 150//124
f 111//125 138//126 139//127 113//128
f 109//120 111//125 112//52 110//42
f 103//129 166//130 165//131 137//132
f 135//133 150//124 104//134 105//111
f 111//125 113//128 114//59 112//52
f 139//127 163//135 162//114 140//113
f 131//136 148//137 149//121 133//138
f 113//128 115//139 116//64 114//59
f 142//118 160//140 159//105 143//104
f 125//110 145//109 146//141 127//142
f 115//139 117//117 118//69 116//64
f 150//124 151//123 152//143 104//134
f 105//111 104//134 103//129 107//112
f 117//117 119//119 120//71 118//69
f 145//109 157//144 156//145 146//141
f 119//119 142//118 143//104 121//146
f 119//119 121//146 122//75 120//71
f 148//137 154//147 153//122 149//121
f 113//128 139//127 140//113 115//139
f 121//146 123//108 124//77 122//75
f 104//134 152//143 166//130 103//129
f 107//112 103//129 137//132 109//120
f 123//108 125//110 126//78 124//77
f 138//126 164//148 163//135 139//127
f 133//138 149//121 150//124 135//133
f 125//110 127//142 128//80 126//78
f 141//116 161//115 160//140 142//118
f 127//142 146//141 147//149 129//150
f 127//142 129//150 130//83 128//80
f 144//107 158//106 157//144 145//109
f 121//146 143//104 144//107 123//108
f 129//150 131//136 132//84 130//83
f 151//123 167//151 168//152 152//143
f 115//139 140//113 141//116 117//117
f 131//136 133//138 134//87 132//84
f 108//33 110//42 112//52 114//59 116//64 118//69 120//71 122//75 124//77 126//78 128//80 130//83 132//84 134//87 136//89 106//32
f 147//149 155//153 154//147 148//137
f 133//138 135//133 136//89 134//87
f 146//141 156//145 155//153 147//149
f 129//150 147//149 148//137 131//136
f 135//133 105//111 106//32 136//89
f 109//120 137//132 138//126 111//125
f 137//132 165//131 164//148 138//126
f 168//152 167//151 169//154 170//155 171//156 172//157 173//158 174//159 175//160 176//161 177//162 178//163 179//164 180//165 181//166 182//167
f 152//143 168//152 182//167 166//130
f 160//140 176//161 175//160 159//105
f 153//122 169//154 167//151 151//123
f 161//115 177//162 176//161 160//140
f 154//147 170//155 169//154 153//122
f 162//114 178//163 177//162 161//115
f 155//153 171//156 170//155 154//147
f 163//135 179//164 178//163 162//114
f 156//145 172//157 171//156 155//153
f 164//148 180//165 179//164 163//135
f 157//144 173//158 172//157 156//145
f 165//131 181//166 180//165 164//148
f 158//106 174//159 173//158 157//144
f 166//130 182//167 181//166 165//131
f 159//105 175//160 174//159 158//106
f 185//168 189//169 187//170 183//171
f 193//168 197//169 195//170 191//171
f 201//168 205//169 203//170 199//171
f 209//168 213//169 211//170 207//171
