# Blender v2.79 (sub 0) OBJ File: 'GunBarrel1.blend'
# www.blender.org
mtllib GunBarrel1.mtl
o Cylinder
v 0.000000 -0.046662 -0.034833
v 0.000000 -0.027281 -0.034833
v 0.024631 -0.027281 -0.024631
v 0.024631 -0.046662 -0.024631
v 0.034833 -0.027281 -0.000000
v 0.034833 -0.046662 -0.000000
v 0.024631 -0.027281 0.024631
v 0.024631 -0.046662 0.024631
v 0.000000 -0.027281 0.034833
v 0.000000 -0.046662 0.034833
v -0.024631 -0.027281 0.024631
v -0.024631 -0.046662 0.024631
v -0.034833 -0.027281 -0.000000
v -0.034833 -0.046662 -0.000000
v -0.024631 -0.027281 -0.024631
v -0.024631 -0.046662 -0.024631
v 0.027128 -0.046662 -0.000000
v 0.019182 -0.046662 -0.019182
v 0.000000 -0.046662 0.027128
v -0.019182 -0.046662 0.019182
v -0.019182 -0.042128 0.019182
v 0.000000 -0.042128 0.027128
v 0.000000 -0.046662 -0.027128
v -0.019182 -0.046662 -0.019182
v 0.019182 -0.046662 0.019182
v -0.027128 -0.046662 -0.000000
v 0.000000 -0.042128 -0.027128
v 0.019182 -0.042128 -0.019182
v 0.027128 -0.042128 -0.000000
v 0.019182 -0.042128 0.019182
v 0.015840 -0.042128 0.008501
v 0.009420 -0.042128 0.000137
v 0.016198 -0.042128 -0.008816
v 0.004624 -0.042128 -0.006627
v -0.001111 -0.042128 -0.018136
v -0.003807 -0.042128 -0.004497
v -0.015908 -0.042128 0.000420
v -0.027128 -0.042128 -0.000000
v -0.019182 -0.042128 -0.019182
v 0.005477 -0.046688 0.007331
v -0.001216 -0.046688 0.017900
v -0.003000 -0.046688 0.004301
v -0.015908 -0.046688 0.000420
v -0.003807 -0.046688 -0.004497
v -0.001111 -0.046688 -0.018136
v 0.004624 -0.046688 -0.006627
v 0.016198 -0.046688 -0.008816
v 0.009420 -0.046688 0.000137
v 0.015840 -0.046688 0.008501
v -0.003000 -0.042128 0.004301
v -0.001216 -0.042128 0.017900
v 0.005477 -0.042128 0.007331
vn 0.3827 0.0000 -0.9239
vn 0.9239 -0.0000 -0.3827
vn 0.9239 -0.0000 0.3827
vn 0.3827 -0.0000 0.9239
vn -0.3827 -0.0000 0.9239
vn -0.9239 0.0000 0.3827
vn 0.0000 1.0000 0.0000
vn -0.9239 0.0000 -0.3827
vn -0.3827 0.0000 -0.9239
vn -0.0000 -1.0000 -0.0000
vn -0.1858 0.0000 -0.9826
vn -0.3764 0.0000 -0.9264
vn 0.8448 -0.0000 0.5350
vn 0.7973 -0.0000 0.6036
vn -0.9810 0.0000 -0.1939
vn -0.9915 -0.0000 0.1301
vn 0.7933 0.0000 -0.6089
vn 0.8950 0.0000 -0.4460
vn -0.2879 -0.0000 0.9577
vn -0.1122 -0.0000 0.9937
usemtl None
s 1
f 1//1 2//1 3//1 4//1
f 4//2 3//2 5//2 6//2
f 6//3 5//3 7//3 8//3
f 8//4 7//4 9//4 10//4
f 10//5 9//5 11//5 12//5
f 12//6 11//6 13//6 14//6
f 3//7 2//7 15//7 13//7 11//7 9//7 7//7 5//7
f 14//8 13//8 15//8 16//8
f 16//9 15//9 2//9 1//9
f 4//10 6//10 17//10 18//10
f 19//1 20//1 21//1 22//1
f 10//10 12//10 20//10 19//10
f 16//10 1//10 23//10 24//10
f 1//10 4//10 18//10 23//10
f 6//10 8//10 25//10 17//10
f 12//10 14//10 26//10 20//10
f 8//10 10//10 19//10 25//10
f 14//10 16//10 24//10 26//10
f 27//10 28//10 29//10 30//10 31//10 32//10 33//10 34//10 35//10 36//10 37//10 38//10 39//10
f 17//8 25//8 30//8 29//8
f 23//5 18//5 28//5 27//5
f 24//4 23//4 27//4 39//4
f 20//2 26//2 38//2 21//2
f 25//9 19//9 22//9 30//9
f 18//6 17//6 29//6 28//6
f 26//3 24//3 39//3 38//3
f 40//10 41//10 42//10 43//10 44//10 45//10 46//10 47//10 48//10 49//10
f 38//10 37//10 50//10 51//10 52//10 31//10 30//10 22//10 21//10
f 34//11 33//11 47//11 46//11
f 37//12 36//12 44//12 43//12
f 52//13 51//13 41//13 40//13
f 33//14 32//14 48//14 47//14
f 36//15 35//15 45//15 44//15
f 51//16 50//16 42//16 41//16
f 32//17 31//17 49//17 48//17
f 35//18 34//18 46//18 45//18
f 50//19 37//19 43//19 42//19
f 31//20 52//20 40//20 49//20
o Cube
v 0.040000 -0.040000 -0.040000
v 0.040000 -0.040000 0.040000
v -0.040000 -0.040000 0.040000
v -0.040000 -0.040000 -0.040000
v 0.040000 -0.024133 -0.040000
v 0.040000 -0.024133 0.040000
v -0.040000 -0.024133 0.040000
v -0.040000 -0.024133 -0.040000
v -0.040000 0.008907 0.040000
v 0.040000 0.008907 0.040000
v 0.040000 0.008907 -0.040000
v -0.040000 -0.006961 -0.040000
v -0.040000 -0.006961 0.040000
v 0.040000 -0.006961 0.040000
v 0.040000 -0.006961 -0.040000
v -0.040000 0.008907 -0.040000
v -0.040000 0.043940 0.040000
v 0.040000 0.043940 0.040000
v 0.040000 0.043940 -0.040000
v -0.040000 0.028073 -0.040000
v -0.040000 0.028073 0.040000
v 0.040000 0.028073 0.040000
v 0.040000 0.028073 -0.040000
v -0.040000 0.043940 -0.040000
v 0.000000 0.084379 -0.016388
v 0.006271 0.084379 -0.015141
v 0.000000 -0.029023 -0.020000
v 0.000000 0.084379 -0.020000
v 0.007654 -0.029023 -0.018478
v 0.007654 0.084379 -0.018478
v 0.014142 -0.029023 -0.014142
v 0.014142 0.084379 -0.014142
v 0.018478 -0.029023 -0.007654
v 0.018478 0.084379 -0.007654
v 0.020000 -0.029023 0.000000
v 0.020000 0.084379 0.000000
v 0.018478 -0.029023 0.007654
v 0.018478 0.084379 0.007654
v 0.014142 -0.029023 0.014142
v 0.014142 0.084379 0.014142
v 0.007654 -0.029023 0.018478
v 0.007654 0.084379 0.018478
v 0.000000 -0.029023 0.020000
v 0.000000 0.084379 0.020000
v -0.007654 -0.029023 0.018478
v -0.007654 0.084379 0.018478
v -0.014142 -0.029023 0.014142
v -0.014142 0.084379 0.014142
v -0.018478 -0.029023 0.007654
v -0.018478 0.084379 0.007654
v -0.020000 -0.029023 -0.000000
v -0.020000 0.084379 -0.000000
v -0.018478 -0.029023 -0.007654
v -0.018478 0.084379 -0.007654
v -0.014142 -0.029023 -0.014142
v -0.014142 0.084379 -0.014142
v -0.007654 -0.029023 -0.018478
v -0.007654 0.084379 -0.018478
v 0.011588 0.084379 -0.011588
v 0.015141 0.084379 -0.006271
v 0.016388 0.084379 0.000000
v 0.015141 0.084379 0.006271
v 0.011588 0.084379 0.011588
v 0.006271 0.084379 0.015141
v 0.000000 0.084379 0.016388
v -0.006271 0.084379 0.015141
v -0.011588 0.084379 0.011588
v -0.015141 0.084379 0.006271
v -0.016388 0.084379 -0.000000
v -0.015141 0.084379 -0.006271
v -0.011588 0.084379 -0.011588
v -0.006271 0.084379 -0.015141
v 0.000000 0.051322 -0.016388
v -0.006271 0.051322 -0.015141
v -0.011588 0.051322 -0.011588
v -0.015141 0.051322 -0.006271
v -0.016388 0.051322 -0.000000
v -0.015141 0.051322 0.006271
v -0.011588 0.051322 0.011588
v -0.006271 0.051322 0.015141
v 0.000000 0.051322 0.016388
v 0.006271 0.051322 0.015141
v 0.011588 0.051322 0.011588
v 0.015141 0.051322 0.006271
v 0.016388 0.051322 0.000000
v 0.015141 0.051322 -0.006271
v 0.011588 0.051322 -0.011588
v 0.006271 0.051322 -0.015141
v 0.025387 -0.035389 -0.025387
v 0.025387 0.035389 -0.025387
v 0.025387 -0.035389 -0.034613
v 0.025387 0.035389 -0.034613
v 0.034613 -0.035389 -0.025387
v 0.034613 0.035389 -0.025387
v 0.034613 -0.035389 -0.034613
v 0.034613 0.035389 -0.034613
v 0.025387 -0.035389 0.034613
v 0.025387 0.035389 0.034613
v 0.025387 -0.035389 0.025387
v 0.025387 0.035389 0.025387
v 0.034613 -0.035389 0.034613
v 0.034613 0.035389 0.034613
v 0.034613 -0.035389 0.025387
v 0.034613 0.035389 0.025387
v -0.034613 -0.035389 0.034613
v -0.034613 0.035389 0.034613
v -0.034613 -0.035389 0.025387
v -0.034613 0.035389 0.025387
v -0.025387 -0.035389 0.034613
v -0.025387 0.035389 0.034613
v -0.025387 -0.035389 0.025387
v -0.025387 0.035389 0.025387
v -0.034613 -0.035389 -0.025387
v -0.034613 0.035389 -0.025387
v -0.034613 -0.035389 -0.034613
v -0.034613 0.035389 -0.034613
v -0.025387 -0.035389 -0.025387
v -0.025387 0.035389 -0.025387
v -0.025387 -0.035389 -0.034613
v -0.025387 0.035389 -0.034613
vn 0.0000 -1.0000 0.0000
vn 0.0000 1.0000 -0.0000
vn 1.0000 0.0000 0.0000
vn -0.0000 -0.0000 1.0000
vn -1.0000 -0.0000 -0.0000
vn 0.0000 0.0000 -1.0000
vn 0.1951 0.0000 -0.9808
vn -0.8315 0.0000 -0.5556
vn 0.5556 0.0000 -0.8315
vn 0.5556 0.0000 0.8315
vn 0.8315 0.0000 -0.5556
vn -0.5556 0.0000 0.8315
vn 0.9808 0.0000 -0.1951
vn -0.9808 0.0000 -0.1951
vn 0.9808 0.0000 0.1951
vn 0.1951 0.0000 0.9808
vn 0.8315 0.0000 0.5556
vn -0.1951 0.0000 -0.9808
vn -0.1951 0.0000 0.9808
vn -0.9808 0.0000 0.1951
vn -0.8315 0.0000 0.5556
vn -0.5556 0.0000 -0.8315
usemtl Material
s off
f 53//21 54//21 55//21 56//21
f 57//22 60//22 59//22 58//22
f 53//23 57//23 58//23 54//23
f 54//24 58//24 59//24 55//24
f 55//25 59//25 60//25 56//25
f 57//26 53//26 56//26 60//26
f 67//23 63//23 62//23 66//23
f 63//22 68//22 61//22 62//22
f 67//21 66//21 65//21 64//21
f 66//24 62//24 61//24 65//24
f 65//25 61//25 68//25 64//25
f 63//26 67//26 64//26 68//26
f 75//23 71//23 70//23 74//23
f 71//22 76//22 69//22 70//22
f 75//21 74//21 73//21 72//21
f 74//24 70//24 69//24 73//24
f 73//25 69//25 76//25 72//25
f 71//26 75//26 72//26 76//26
f 118//27 117//27 133//27 132//27
f 100//22 98//22 118//22 119//22
f 79//27 80//27 82//27 81//27
f 115//28 114//28 136//28 135//28
f 94//22 92//22 115//22 116//22
f 81//29 82//29 84//29 83//29
f 124//30 123//30 127//30 126//30
f 88//22 86//22 112//22 113//22
f 83//31 84//31 86//31 85//31
f 111//32 78//32 140//32 139//32
f 82//22 80//22 77//22 78//22
f 85//33 86//33 88//33 87//33
f 114//34 113//34 137//34 136//34
f 80//22 110//22 124//22 77//22
f 87//35 88//35 90//35 89//35
f 77//36 124//36 126//36 125//36
f 108//22 106//22 122//22 123//22
f 89//37 90//37 92//37 91//37
f 117//38 116//38 134//38 133//38
f 102//22 100//22 119//22 120//22
f 91//30 92//30 94//30 93//30
f 120//31 119//31 131//31 130//31
f 96//22 94//22 116//22 117//22
f 93//36 94//36 96//36 95//36
f 123//37 122//37 128//37 127//37
f 90//22 88//22 113//22 114//22
f 95//39 96//39 98//39 97//39
f 78//39 77//39 125//39 140//39
f 84//22 82//22 78//22 111//22
f 97//32 98//32 100//32 99//32
f 113//40 112//40 138//40 137//40
f 110//22 108//22 123//22 124//22
f 99//41 100//41 102//41 101//41
f 116//42 115//42 135//42 134//42
f 104//22 102//22 120//22 121//22
f 101//40 102//40 104//40 103//40
f 119//29 118//29 132//29 131//29
f 98//22 96//22 117//22 118//22
f 103//34 104//34 106//34 105//34
f 140//22 125//22 126//22 127//22 128//22 129//22 130//22 131//22 132//22 133//22 134//22 135//22 136//22 137//22 138//22 139//22
f 92//22 90//22 114//22 115//22
f 105//28 106//28 108//28 107//28
f 86//22 84//22 111//22 112//22
f 122//35 121//35 129//35 128//35
f 107//42 108//42 110//42 109//42
f 121//33 120//33 130//33 129//33
f 106//22 104//22 121//22 122//22
f 109//38 110//38 80//38 79//38
f 79//21 81//21 83//21 85//21 87//21 89//21 91//21 93//21 95//21 97//21 99//21 101//21 103//21 105//21 107//21 109//21
f 112//41 111//41 139//41 138//41
f 141//25 142//25 144//25 143//25
f 143//26 144//26 148//26 147//26
f 147//23 148//23 146//23 145//23
f 145//24 146//24 142//24 141//24
f 143//21 147//21 145//21 141//21
f 148//22 144//22 142//22 146//22
f 149//25 150//25 152//25 151//25
f 151//26 152//26 156//26 155//26
f 155//23 156//23 154//23 153//23
f 153//24 154//24 150//24 149//24
f 151//21 155//21 153//21 149//21
f 156//22 152//22 150//22 154//22
f 157//25 158//25 160//25 159//25
f 159//26 160//26 164//26 163//26
f 163//23 164//23 162//23 161//23
f 161//24 162//24 158//24 157//24
f 159//21 163//21 161//21 157//21
f 164//22 160//22 158//22 162//22
f 165//25 166//25 168//25 167//25
f 167//26 168//26 172//26 171//26
f 171//23 172//23 170//23 169//23
f 169//24 170//24 166//24 165//24
f 167//21 171//21 169//21 165//21
f 172//22 168//22 166//22 170//22
