# Blender v2.79 (sub 0) OBJ File: 'GunPart_Handle.blend'
# www.blender.org
mtllib GunPart_Handle.mtl
o Cube
v 1.000000 -1.000000 -1.000000
v 1.000000 -1.000000 1.000000
v -1.000000 -1.000000 1.000000
v -1.000000 -1.000000 -1.000000
v 1.000000 1.000000 -0.999999
v 0.999999 1.000000 1.000001
v -1.000000 1.000000 1.000000
v -1.000000 1.000000 -1.000000
v 0.439360 -1.000000 -0.277565
v 0.439360 -1.000000 0.277565
v -0.764698 -1.000000 -0.277565
v -0.764698 -1.000000 0.277565
v -0.078995 -3.756834 -0.277565
v -0.078995 -3.756834 0.277565
v -1.283053 -3.756834 -0.277565
v -1.283053 -3.756834 0.277565
vn 0.0000 -1.0000 0.0000
vn 0.0000 1.0000 0.0000
vn 1.0000 0.0000 0.0000
vn -0.0000 -0.0000 1.0000
vn -1.0000 -0.0000 -0.0000
vn 0.0000 0.0000 -1.0000
vn 0.9828 -0.1848 0.0000
vn -0.9828 0.1848 -0.0000
usemtl Material
s off
f 2//1 3//1 12//1 10//1
f 5//2 8//2 7//2 6//2
f 1//3 5//3 6//3 2//3
f 2//4 6//4 7//4 3//4
f 3//5 7//5 8//5 4//5
f 5//6 1//6 4//6 8//6
f 10//4 12//4 16//4 14//4
f 4//1 1//1 9//1 11//1
f 1//1 2//1 10//1 9//1
f 3//1 4//1 11//1 12//1
f 13//1 14//1 16//1 15//1
f 9//7 10//7 14//7 13//7
f 12//8 11//8 15//8 16//8
f 11//6 9//6 13//6 15//6
