# Blender v2.79 (sub 0) OBJ File: 'GunPart_Handle.blend'
# www.blender.org
mtllib GunPart_Handle2.mtl
o Cylinder
v 0.000000 -0.034833 0.046662
v 0.000000 -0.034833 0.027281
v 0.024631 -0.024631 0.027281
v 0.024631 -0.024631 0.046662
v 0.034833 0.000000 0.027281
v 0.034833 0.000000 0.046662
v 0.024631 0.024631 0.027281
v 0.024631 0.024631 0.046662
v 0.000000 0.034833 0.027281
v 0.000000 0.034833 0.046662
v -0.024631 0.024631 0.027281
v -0.024631 0.024631 0.046662
v -0.034833 0.000000 0.027281
v -0.034833 0.000000 0.046662
v -0.024631 -0.024631 0.027281
v -0.024631 -0.024631 0.046662
v 0.027128 0.000000 0.046662
v 0.019182 -0.019182 0.046662
v 0.000000 0.027128 0.046662
v -0.019182 0.019182 0.046662
v -0.019182 0.019182 0.042128
v 0.000000 0.027128 0.042128
v 0.000000 -0.027128 0.046662
v -0.019182 -0.019182 0.046662
v 0.019182 0.019182 0.046662
v -0.027128 0.000000 0.046662
v 0.000000 -0.027128 0.042128
v 0.019182 -0.019182 0.042128
v 0.027128 0.000000 0.042128
v 0.019182 0.019182 0.042128
v 0.015840 0.008501 0.042128
v 0.009420 0.000137 0.042128
v 0.016198 -0.008816 0.042128
v 0.004624 -0.006627 0.042128
v -0.001111 -0.018136 0.042128
v -0.003807 -0.004497 0.042128
v -0.015908 0.000420 0.042128
v -0.027128 0.000000 0.042128
v -0.019182 -0.019182 0.042128
v 0.005477 0.007331 0.046688
v -0.001216 0.017900 0.046688
v -0.003000 0.004301 0.046688
v -0.015908 0.000420 0.046688
v -0.003807 -0.004497 0.046688
v -0.001111 -0.018136 0.046688
v 0.004624 -0.006627 0.046688
v 0.016198 -0.008816 0.046688
v 0.009420 0.000137 0.046688
v 0.015840 0.008501 0.046688
v -0.003000 0.004301 0.042128
v -0.001216 0.017900 0.042128
v 0.005477 0.007331 0.042128
vn 0.3827 -0.9239 0.0000
vn 0.9239 -0.3827 0.0000
vn 0.9239 0.3827 0.0000
vn 0.3827 0.9239 0.0000
vn -0.3827 0.9239 0.0000
vn -0.9239 0.3827 0.0000
vn 0.0000 0.0000 -1.0000
vn -0.9239 -0.3827 0.0000
vn -0.3827 -0.9239 0.0000
vn 0.0000 0.0000 1.0000
vn -0.1858 -0.9826 0.0000
vn -0.3764 -0.9264 0.0000
vn 0.8448 0.5350 0.0000
vn 0.7973 0.6036 0.0000
vn -0.9810 -0.1939 0.0000
vn -0.9915 0.1301 0.0000
vn 0.7933 -0.6089 0.0000
vn 0.8950 -0.4460 0.0000
vn -0.2879 0.9577 0.0000
vn -0.1122 0.9937 0.0000
usemtl None.001
s 1
f 1//1 2//1 3//1 4//1
f 4//2 3//2 5//2 6//2
f 6//3 5//3 7//3 8//3
f 8//4 7//4 9//4 10//4
f 10//5 9//5 11//5 12//5
f 12//6 11//6 13//6 14//6
f 3//7 2//7 15//7 13//7 11//7 9//7 7//7 5//7
f 14//8 13//8 15//8 16//8
f 16//9 15//9 2//9 1//9
f 4//10 6//10 17//10 18//10
f 19//1 20//1 21//1 22//1
f 10//10 12//10 20//10 19//10
f 16//10 1//10 23//10 24//10
f 1//10 4//10 18//10 23//10
f 6//10 8//10 25//10 17//10
f 12//10 14//10 26//10 20//10
f 8//10 10//10 19//10 25//10
f 14//10 16//10 24//10 26//10
f 27//10 28//10 29//10 30//10 31//10 32//10 33//10 34//10 35//10 36//10 37//10 38//10 39//10
f 17//8 25//8 30//8 29//8
f 23//5 18//5 28//5 27//5
f 24//4 23//4 27//4 39//4
f 20//2 26//2 38//2 21//2
f 25//9 19//9 22//9 30//9
f 18//6 17//6 29//6 28//6
f 26//3 24//3 39//3 38//3
f 40//10 41//10 42//10 43//10 44//10 45//10 46//10 47//10 48//10 49//10
f 38//10 37//10 50//10 51//10 52//10 31//10 30//10 22//10 21//10
f 34//11 33//11 47//11 46//11
f 37//12 36//12 44//12 43//12
f 52//13 51//13 41//13 40//13
f 33//14 32//14 48//14 47//14
f 36//15 35//15 45//15 44//15
f 51//16 50//16 42//16 41//16
f 32//17 31//17 49//17 48//17
f 35//18 34//18 46//18 45//18
f 50//19 37//19 43//19 42//19
f 31//20 52//20 40//20 49//20
o Cube.001
v 0.045351 -0.020000 0.020000
v 0.039846 -0.020000 0.020000
v 0.039846 -0.020000 -0.020000
v 0.045351 -0.020000 -0.020000
v 0.039846 0.020000 -0.020000
v 0.045351 0.020000 -0.020000
v 0.039846 0.020000 0.020000
v 0.045351 0.020000 0.020000
v 0.045351 -0.014402 0.014402
v 0.045351 0.014402 0.014402
v 0.045351 -0.014402 -0.014402
v 0.040164 -0.014402 -0.014402
v 0.040164 -0.014402 0.014402
v 0.045351 0.014402 -0.014402
v 0.040164 0.014402 -0.014402
v 0.040164 0.009390 -0.004214
v 0.040164 0.001976 -0.000149
v 0.040164 0.003524 -0.010840
v 0.040164 -0.011936 0.004567
v 0.040164 0.014402 0.014402
v 0.043439 -0.011936 0.004567
v 0.043439 0.003524 -0.010840
v 0.043439 0.001976 -0.000149
v 0.043439 0.009390 -0.004214
v 0.043439 0.009314 0.008303
v 0.043439 -0.005780 0.009241
v 0.043439 -0.004319 0.001758
v 0.040164 0.009314 0.008303
v 0.040164 -0.005780 0.009241
v 0.040164 -0.004319 0.001758
vn 0.0000 -1.0000 0.0000
vn -0.0000 0.0000 -1.0000
vn 0.0000 1.0000 0.0000
vn 0.0000 0.0000 1.0000
vn 1.0000 -0.0000 -0.0000
vn -1.0000 0.0000 0.0000
vn 0.0000 0.0620 0.9981
vn 0.0000 0.3460 0.9382
vn 0.0000 0.9897 0.1433
vn 0.0000 1.0000 0.0061
vn -0.0000 -0.9815 -0.1916
vn -0.0000 -0.7059 -0.7083
vn -0.0000 -0.4808 -0.8768
usemtl None
s 1
f 53//21 54//21 55//21 56//21
f 56//22 55//22 57//22 58//22
f 58//23 57//23 59//23 60//23
f 60//24 59//24 54//24 53//24
f 60//25 53//25 61//25 62//25
f 57//26 55//26 54//26 59//26
f 61//23 63//23 64//23 65//23
f 56//25 58//25 66//25 63//25
f 53//25 56//25 63//25 61//25
f 58//25 60//25 62//25 66//25
f 64//25 67//25 68//25 69//25 70//25 71//25
f 62//22 61//22 65//22 72//22
f 63//24 66//24 67//24 64//24
f 66//21 62//21 72//21 67//21
f 73//25 74//25 75//25 76//25 77//25 78//25 79//25
f 80//27 81//27 78//27 77//27
f 82//25 81//25 80//25 68//25 67//25 72//25 65//25 64//25 71//25
f 82//28 71//28 73//28 79//28
f 70//29 69//29 75//29 74//29
f 68//30 80//30 77//30 76//30
f 81//31 82//31 79//31 78//31
f 71//32 70//32 74//32 73//32
f 69//33 68//33 76//33 75//33
o Cube
v 0.040000 -0.040000 0.040000
v -0.040000 -0.040000 0.040000
v -0.040000 -0.040000 -0.040000
v 0.040000 -0.040000 -0.040000
v 0.040000 0.040000 0.040000
v -0.040000 0.040000 0.040000
v -0.040000 0.040000 -0.040000
v 0.040000 0.040000 -0.040000
v 0.011103 -0.040000 0.017574
v -0.011103 -0.040000 0.017574
v 0.011103 -0.040000 -0.030588
v -0.011103 -0.040000 -0.030588
v 0.011103 -0.150273 -0.003160
v -0.011103 -0.150273 -0.003160
v 0.011103 -0.150273 -0.051322
v -0.011103 -0.150273 -0.051322
vn 0.0000 -1.0000 0.0000
vn 0.0000 1.0000 0.0000
vn -0.0000 0.0000 1.0000
vn -1.0000 -0.0000 -0.0000
vn 0.0000 -0.0000 -1.0000
vn 1.0000 0.0000 0.0000
vn 0.0000 -0.1848 0.9828
vn 0.0000 0.1848 -0.9828
usemtl Material
s off
f 84//34 85//34 94//34 92//34
f 87//35 90//35 89//35 88//35
f 83//36 87//36 88//36 84//36
f 84//37 88//37 89//37 85//37
f 85//38 89//38 90//38 86//38
f 87//39 83//39 86//39 90//39
f 92//37 94//37 98//37 96//37
f 86//34 83//34 91//34 93//34
f 83//34 84//34 92//34 91//34
f 85//34 86//34 93//34 94//34
f 95//34 96//34 98//34 97//34
f 91//40 92//40 96//40 95//40
f 94//41 93//41 97//41 98//41
f 93//39 91//39 95//39 97//39
