# Blender v2.79 (sub 0) OBJ File: 'SimpleCube.blend'
# www.blender.org
mtllib SImpleCube.mtl
o Cube
v 0.040000 -0.040000 0.040000
v -0.040000 -0.040000 0.040000
v -0.040000 -0.040000 -0.040000
v 0.040000 -0.040000 -0.040000
v 0.040000 0.040000 0.040000
v -0.040000 0.040000 0.040000
v -0.040000 0.040000 -0.040000
v 0.040000 0.040000 -0.040000
vn 0.0000 1.0000 0.0000
vn -0.0000 0.0000 1.0000
vn -1.0000 -0.0000 -0.0000
vn 0.0000 -0.0000 -1.0000
vn 1.0000 0.0000 0.0000
vn 0.0000 -1.0000 -0.0000
usemtl Material
s off
f 5//1 8//1 7//1 6//1
f 1//2 5//2 6//2 2//2
f 2//3 6//3 7//3 3//3
f 3//4 7//4 8//4 4//4
f 5//5 1//5 4//5 8//5
f 4//6 1//6 2//6 3//6
